<mxfile host="drawio-plugin" modified="2023-10-27T14:06:28.938Z" agent="5.0 (X11; Linux x86_64) AppleWebKit/537.36 (KHTML, like Gecko) Chrome/111.0.0.0 Safari/537.36" etag="RD2qmp9CIllLpnF90OaN" version="20.5.3" type="embed"><diagram id="C5RBs43oDa-KdzZeNtuy" name="Page-1"><mxGraphModel dx="2062" dy="569" grid="1" gridSize="10" guides="1" tooltips="1" connect="1" arrows="1" fold="1" page="1" pageScale="1" pageWidth="827" pageHeight="1169" math="0" shadow="0"><root><mxCell id="WIyWlLk6GJQsqaUBKTNV-0"/><mxCell id="WIyWlLk6GJQsqaUBKTNV-1" parent="WIyWlLk6GJQsqaUBKTNV-0"/><mxCell id="WIyWlLk6GJQsqaUBKTNV-3" value="&lt;b&gt;main&lt;/b&gt;" style="rounded=0;whiteSpace=wrap;html=1;fontSize=12;glass=0;strokeWidth=1;shadow=0;fillColor=#dae8fc;strokeColor=#6c8ebf;" parent="WIyWlLk6GJQsqaUBKTNV-1" vertex="1"><mxGeometry x="-70" y="40" width="50" height="20" as="geometry"/></mxCell><mxCell id="cD3hOyNp7aLph0WX6oH9-0" value="" style="rounded=0;whiteSpace=wrap;html=1;fillColor=#dae8fc;strokeColor=#6c8ebf;" parent="WIyWlLk6GJQsqaUBKTNV-1" vertex="1"><mxGeometry x="-70" y="60" width="1250" height="220" as="geometry"/></mxCell><mxCell id="cD3hOyNp7aLph0WX6oH9-7" style="edgeStyle=orthogonalEdgeStyle;rounded=0;orthogonalLoop=1;jettySize=auto;html=1;" parent="WIyWlLk6GJQsqaUBKTNV-1" source="cD3hOyNp7aLph0WX6oH9-2" target="cD3hOyNp7aLph0WX6oH9-5" edge="1"><mxGeometry relative="1" as="geometry"><Array as="points"><mxPoint x="320" y="135"/><mxPoint x="320" y="135"/></Array></mxGeometry></mxCell><mxCell id="cD3hOyNp7aLph0WX6oH9-2" value="&lt;div&gt;&lt;font color=&quot;#999999&quot;&gt;rc&lt;/font&gt;&lt;br&gt;&lt;/div&gt;&lt;div&gt;&lt;b&gt;V2XRoutingControl&lt;/b&gt;&lt;/div&gt;&lt;div&gt;new LightWeightZmqRoutingControl&lt;br&gt;&lt;/div&gt;" style="rounded=0;whiteSpace=wrap;html=1;dashed=1;dashPattern=1 1;" parent="WIyWlLk6GJQsqaUBKTNV-1" vertex="1"><mxGeometry x="80" y="115" width="220" height="40" as="geometry"/></mxCell><mxCell id="cD3hOyNp7aLph0WX6oH9-16" style="edgeStyle=orthogonalEdgeStyle;rounded=0;orthogonalLoop=1;jettySize=auto;html=1;strokeColor=#000000;" parent="WIyWlLk6GJQsqaUBKTNV-1" source="cD3hOyNp7aLph0WX6oH9-4" target="cD3hOyNp7aLph0WX6oH9-13" edge="1"><mxGeometry relative="1" as="geometry"/></mxCell><mxCell id="cD3hOyNp7aLph0WX6oH9-4" value="&lt;div&gt;&lt;font color=&quot;#999999&quot;&gt;cc&lt;/font&gt;&lt;br&gt;&lt;/div&gt;&lt;div&gt;&lt;b&gt;CommunicationControl&lt;/b&gt;&lt;/div&gt;&lt;div&gt;new CommunicationControl&lt;br&gt;&lt;/div&gt;" style="rounded=0;whiteSpace=wrap;html=1;dashed=1;dashPattern=1 1;" parent="WIyWlLk6GJQsqaUBKTNV-1" vertex="1"><mxGeometry x="80" y="195" width="220" height="40" as="geometry"/></mxCell><mxCell id="cD3hOyNp7aLph0WX6oH9-8" style="edgeStyle=orthogonalEdgeStyle;rounded=0;orthogonalLoop=1;jettySize=auto;html=1;" parent="WIyWlLk6GJQsqaUBKTNV-1" source="cD3hOyNp7aLph0WX6oH9-5" target="cD3hOyNp7aLph0WX6oH9-6" edge="1"><mxGeometry relative="1" as="geometry"/></mxCell><mxCell id="cD3hOyNp7aLph0WX6oH9-5" value="&lt;div&gt;&lt;font color=&quot;#999999&quot;&gt;rc&lt;/font&gt;&lt;br&gt;&lt;/div&gt;&lt;div&gt;Configure()&lt;/div&gt;" style="rounded=0;whiteSpace=wrap;html=1;dashed=1;dashPattern=1 1;" parent="WIyWlLk6GJQsqaUBKTNV-1" vertex="1"><mxGeometry x="344" y="120" width="76" height="30" as="geometry"/></mxCell><mxCell id="cD3hOyNp7aLph0WX6oH9-10" style="edgeStyle=orthogonalEdgeStyle;rounded=0;orthogonalLoop=1;jettySize=auto;html=1;" parent="WIyWlLk6GJQsqaUBKTNV-1" source="cD3hOyNp7aLph0WX6oH9-6" target="cD3hOyNp7aLph0WX6oH9-9" edge="1"><mxGeometry relative="1" as="geometry"/></mxCell><mxCell id="cD3hOyNp7aLph0WX6oH9-6" value="&lt;font color=&quot;#999999&quot;&gt;rc&lt;/font&gt;&lt;br&gt;&lt;div&gt;StartUp()&lt;/div&gt;" style="rounded=0;whiteSpace=wrap;html=1;dashed=1;dashPattern=1 1;" parent="WIyWlLk6GJQsqaUBKTNV-1" vertex="1"><mxGeometry x="450" y="120" width="76" height="30" as="geometry"/></mxCell><mxCell id="cD3hOyNp7aLph0WX6oH9-33" style="edgeStyle=orthogonalEdgeStyle;rounded=0;orthogonalLoop=1;jettySize=auto;html=1;" parent="WIyWlLk6GJQsqaUBKTNV-1" source="cD3hOyNp7aLph0WX6oH9-9" target="cD3hOyNp7aLph0WX6oH9-19" edge="1"><mxGeometry relative="1" as="geometry"/></mxCell><mxCell id="cD3hOyNp7aLph0WX6oH9-9" value="&lt;div&gt;&lt;font color=&quot;#b3b3b3&quot;&gt;rc_thread&lt;/font&gt;&lt;/div&gt;&lt;div&gt;run()&lt;br&gt;&lt;/div&gt;" style="rounded=0;whiteSpace=wrap;html=1;dashed=1;" parent="WIyWlLk6GJQsqaUBKTNV-1" vertex="1"><mxGeometry x="560" y="120" width="120" height="30" as="geometry"/></mxCell><mxCell id="cD3hOyNp7aLph0WX6oH9-17" style="edgeStyle=orthogonalEdgeStyle;rounded=0;orthogonalLoop=1;jettySize=auto;html=1;" parent="WIyWlLk6GJQsqaUBKTNV-1" source="cD3hOyNp7aLph0WX6oH9-13" target="cD3hOyNp7aLph0WX6oH9-14" edge="1"><mxGeometry relative="1" as="geometry"/></mxCell><mxCell id="cD3hOyNp7aLph0WX6oH9-13" value="&lt;font color=&quot;#999999&quot;&gt;cc&lt;/font&gt;&lt;br&gt;&lt;div&gt;Configure()&lt;/div&gt;" style="rounded=0;whiteSpace=wrap;html=1;dashed=1;dashPattern=1 1;" parent="WIyWlLk6GJQsqaUBKTNV-1" vertex="1"><mxGeometry x="344" y="200" width="76" height="30" as="geometry"/></mxCell><mxCell id="cD3hOyNp7aLph0WX6oH9-18" style="edgeStyle=orthogonalEdgeStyle;rounded=0;orthogonalLoop=1;jettySize=auto;html=1;" parent="WIyWlLk6GJQsqaUBKTNV-1" source="cD3hOyNp7aLph0WX6oH9-14" target="cD3hOyNp7aLph0WX6oH9-15" edge="1"><mxGeometry relative="1" as="geometry"/></mxCell><mxCell id="cD3hOyNp7aLph0WX6oH9-14" value="&lt;font color=&quot;#999999&quot;&gt;cc&lt;/font&gt;&lt;br&gt;&lt;div&gt;StartUp()&lt;/div&gt;" style="rounded=0;whiteSpace=wrap;html=1;dashed=1;dashPattern=1 1;" parent="WIyWlLk6GJQsqaUBKTNV-1" vertex="1"><mxGeometry x="450" y="200" width="76" height="30" as="geometry"/></mxCell><mxCell id="cD3hOyNp7aLph0WX6oH9-22" style="edgeStyle=orthogonalEdgeStyle;rounded=0;orthogonalLoop=1;jettySize=auto;html=1;entryX=0;entryY=0.5;entryDx=0;entryDy=0;" parent="WIyWlLk6GJQsqaUBKTNV-1" source="cD3hOyNp7aLph0WX6oH9-15" target="cD3hOyNp7aLph0WX6oH9-20" edge="1"><mxGeometry relative="1" as="geometry"/></mxCell><mxCell id="cD3hOyNp7aLph0WX6oH9-15" value="&lt;div&gt;&lt;font color=&quot;#b3b3b3&quot;&gt;cc_thread&lt;/font&gt;&lt;/div&gt;&lt;div&gt;run()&lt;br&gt;&lt;/div&gt;" style="rounded=0;whiteSpace=wrap;html=1;dashed=1;fillColor=#e51400;fontColor=#ffffff;strokeColor=#B20000;" parent="WIyWlLk6GJQsqaUBKTNV-1" vertex="1"><mxGeometry x="560" y="200" width="120" height="30" as="geometry"/></mxCell><mxCell id="cD3hOyNp7aLph0WX6oH9-39" style="edgeStyle=orthogonalEdgeStyle;rounded=0;orthogonalLoop=1;jettySize=auto;html=1;entryX=0;entryY=0.5;entryDx=0;entryDy=0;" parent="WIyWlLk6GJQsqaUBKTNV-1" source="cD3hOyNp7aLph0WX6oH9-19" target="cD3hOyNp7aLph0WX6oH9-23" edge="1"><mxGeometry relative="1" as="geometry"/></mxCell><mxCell id="cD3hOyNp7aLph0WX6oH9-19" value="&lt;div&gt;&lt;font color=&quot;#999999&quot;&gt;rc&lt;/font&gt;&lt;br&gt;&lt;/div&gt;&lt;div&gt;stop()&lt;/div&gt;" style="rounded=0;whiteSpace=wrap;html=1;dashed=1;dashPattern=1 1;" parent="WIyWlLk6GJQsqaUBKTNV-1" vertex="1"><mxGeometry x="710" y="120" width="76" height="30" as="geometry"/></mxCell><mxCell id="cD3hOyNp7aLph0WX6oH9-40" style="edgeStyle=orthogonalEdgeStyle;rounded=0;orthogonalLoop=1;jettySize=auto;html=1;" parent="WIyWlLk6GJQsqaUBKTNV-1" source="cD3hOyNp7aLph0WX6oH9-20" target="cD3hOyNp7aLph0WX6oH9-24" edge="1"><mxGeometry relative="1" as="geometry"/></mxCell><mxCell id="cD3hOyNp7aLph0WX6oH9-20" value="&lt;div&gt;&lt;font color=&quot;#999999&quot;&gt;cc&lt;/font&gt;&lt;br&gt;&lt;/div&gt;&lt;div&gt;stop()&lt;/div&gt;" style="rounded=0;whiteSpace=wrap;html=1;dashed=1;dashPattern=1 1;" parent="WIyWlLk6GJQsqaUBKTNV-1" vertex="1"><mxGeometry x="710" y="200" width="76" height="30" as="geometry"/></mxCell><mxCell id="cD3hOyNp7aLph0WX6oH9-42" style="edgeStyle=orthogonalEdgeStyle;rounded=0;orthogonalLoop=1;jettySize=auto;html=1;" parent="WIyWlLk6GJQsqaUBKTNV-1" source="cD3hOyNp7aLph0WX6oH9-23" target="cD3hOyNp7aLph0WX6oH9-41" edge="1"><mxGeometry relative="1" as="geometry"/></mxCell><mxCell id="cD3hOyNp7aLph0WX6oH9-23" value="&lt;div&gt;&lt;font color=&quot;#b3b3b3&quot;&gt;rc_thread&lt;/font&gt;&lt;/div&gt;&lt;div&gt;join()&lt;br&gt;&lt;/div&gt;" style="rounded=0;whiteSpace=wrap;html=1;dashed=1;" parent="WIyWlLk6GJQsqaUBKTNV-1" vertex="1"><mxGeometry x="817" y="120" width="120" height="30" as="geometry"/></mxCell><mxCell id="cD3hOyNp7aLph0WX6oH9-45" style="edgeStyle=orthogonalEdgeStyle;rounded=0;orthogonalLoop=1;jettySize=auto;html=1;entryX=0;entryY=0.5;entryDx=0;entryDy=0;" parent="WIyWlLk6GJQsqaUBKTNV-1" source="cD3hOyNp7aLph0WX6oH9-24" target="cD3hOyNp7aLph0WX6oH9-43" edge="1"><mxGeometry relative="1" as="geometry"/></mxCell><mxCell id="cD3hOyNp7aLph0WX6oH9-24" value="&lt;div&gt;&lt;font color=&quot;#b3b3b3&quot;&gt;rc_thread&lt;/font&gt;&lt;/div&gt;&lt;div&gt;join()&lt;br&gt;&lt;/div&gt;" style="rounded=0;whiteSpace=wrap;html=1;dashed=1;" parent="WIyWlLk6GJQsqaUBKTNV-1" vertex="1"><mxGeometry x="817" y="200" width="120" height="30" as="geometry"/></mxCell><mxCell id="cD3hOyNp7aLph0WX6oH9-48" style="edgeStyle=orthogonalEdgeStyle;rounded=0;orthogonalLoop=1;jettySize=auto;html=1;entryX=0;entryY=0.5;entryDx=0;entryDy=0;" parent="WIyWlLk6GJQsqaUBKTNV-1" source="cD3hOyNp7aLph0WX6oH9-41" target="cD3hOyNp7aLph0WX6oH9-46" edge="1"><mxGeometry relative="1" as="geometry"/></mxCell><mxCell id="cD3hOyNp7aLph0WX6oH9-41" value="&lt;font color=&quot;#999999&quot;&gt;rc&lt;/font&gt;&lt;br&gt;&lt;div&gt;ShutDown()&lt;/div&gt;" style="rounded=0;whiteSpace=wrap;html=1;dashed=1;dashPattern=1 1;" parent="WIyWlLk6GJQsqaUBKTNV-1" vertex="1"><mxGeometry x="970" y="120" width="76" height="30" as="geometry"/></mxCell><mxCell id="cD3hOyNp7aLph0WX6oH9-49" style="edgeStyle=orthogonalEdgeStyle;rounded=0;orthogonalLoop=1;jettySize=auto;html=1;" parent="WIyWlLk6GJQsqaUBKTNV-1" source="cD3hOyNp7aLph0WX6oH9-43" target="cD3hOyNp7aLph0WX6oH9-47" edge="1"><mxGeometry relative="1" as="geometry"/></mxCell><mxCell id="cD3hOyNp7aLph0WX6oH9-43" value="&lt;font color=&quot;#999999&quot;&gt;cc&lt;/font&gt;&lt;br&gt;&lt;div&gt;ShutDown()&lt;/div&gt;" style="rounded=0;whiteSpace=wrap;html=1;dashed=1;dashPattern=1 1;" parent="WIyWlLk6GJQsqaUBKTNV-1" vertex="1"><mxGeometry x="970" y="200" width="76" height="30" as="geometry"/></mxCell><mxCell id="cD3hOyNp7aLph0WX6oH9-46" value="&lt;font color=&quot;#999999&quot;&gt;rc&lt;/font&gt;&lt;br&gt;&lt;div&gt;Cleanup()&lt;/div&gt;" style="rounded=0;whiteSpace=wrap;html=1;dashed=1;dashPattern=1 1;" parent="WIyWlLk6GJQsqaUBKTNV-1" vertex="1"><mxGeometry x="1080" y="120" width="76" height="30" as="geometry"/></mxCell><mxCell id="cD3hOyNp7aLph0WX6oH9-47" value="&lt;font color=&quot;#999999&quot;&gt;cc&lt;/font&gt;&lt;br&gt;&lt;div&gt;Cleanup()&lt;/div&gt;" style="rounded=0;whiteSpace=wrap;html=1;dashed=1;dashPattern=1 1;" parent="WIyWlLk6GJQsqaUBKTNV-1" vertex="1"><mxGeometry x="1080" y="200" width="76" height="30" as="geometry"/></mxCell><mxCell id="cD3hOyNp7aLph0WX6oH9-50" value="" style="rounded=0;whiteSpace=wrap;html=1;fillColor=#d5e8d4;strokeColor=#82b366;" parent="WIyWlLk6GJQsqaUBKTNV-1" vertex="1"><mxGeometry x="-70" y="340" width="990" height="470" as="geometry"/></mxCell><mxCell id="cD3hOyNp7aLph0WX6oH9-51" value="&lt;b&gt;CommunicationControl&lt;/b&gt;" style="rounded=0;whiteSpace=wrap;html=1;fillColor=#d5e8d4;strokeColor=#82b366;" parent="WIyWlLk6GJQsqaUBKTNV-1" vertex="1"><mxGeometry x="-70" y="320" width="140" height="20" as="geometry"/></mxCell><mxCell id="cD3hOyNp7aLph0WX6oH9-52" value="" style="rounded=0;whiteSpace=wrap;html=1;fillColor=#fff2cc;strokeColor=#d6b656;" parent="WIyWlLk6GJQsqaUBKTNV-1" vertex="1"><mxGeometry x="1000" y="350" width="260" height="300" as="geometry"/></mxCell><mxCell id="cD3hOyNp7aLph0WX6oH9-53" value="&lt;div&gt;&amp;lt;&amp;lt;Interface&amp;gt;&amp;gt;&lt;/div&gt;&lt;div&gt;&lt;b&gt;V2XInterfaceConnection&lt;/b&gt;&lt;br&gt;&lt;/div&gt;" style="rounded=0;whiteSpace=wrap;html=1;fillColor=#fff2cc;strokeColor=#d6b656;" parent="WIyWlLk6GJQsqaUBKTNV-1" vertex="1"><mxGeometry x="1000" y="320" width="150" height="30" as="geometry"/></mxCell><mxCell id="cD3hOyNp7aLph0WX6oH9-56" value="" style="html=1;verticalLabelPosition=bottom;labelBackgroundColor=#ffffff;verticalAlign=top;shadow=0;dashed=0;strokeWidth=2;shape=mxgraph.ios7.misc.loading_circle;" parent="WIyWlLk6GJQsqaUBKTNV-1" vertex="1"><mxGeometry x="610" y="160" width="20" height="20" as="geometry"/></mxCell><mxCell id="cD3hOyNp7aLph0WX6oH9-59" value="" style="html=1;verticalLabelPosition=bottom;labelBackgroundColor=#ffffff;verticalAlign=top;shadow=0;dashed=0;strokeWidth=2;shape=mxgraph.ios7.misc.loading_circle;" parent="WIyWlLk6GJQsqaUBKTNV-1" vertex="1"><mxGeometry x="610" y="240" width="20" height="20" as="geometry"/></mxCell><mxCell id="cD3hOyNp7aLph0WX6oH9-60" value="&lt;div&gt;&lt;font color=&quot;#999999&quot;&gt;ic&lt;/font&gt;&lt;/div&gt;&lt;div&gt;&lt;b&gt;V2XInterfaceConnection&lt;/b&gt;&lt;br&gt;&lt;/div&gt;" style="rounded=0;whiteSpace=wrap;html=1;" parent="WIyWlLk6GJQsqaUBKTNV-1" vertex="1"><mxGeometry x="175" y="370" width="145" height="30" as="geometry"/></mxCell><mxCell id="cD3hOyNp7aLph0WX6oH9-67" style="edgeStyle=orthogonalEdgeStyle;rounded=0;orthogonalLoop=1;jettySize=auto;html=1;exitX=1;exitY=0.25;exitDx=0;exitDy=0;" parent="WIyWlLk6GJQsqaUBKTNV-1" source="cD3hOyNp7aLph0WX6oH9-62" target="cD3hOyNp7aLph0WX6oH9-65" edge="1"><mxGeometry relative="1" as="geometry"><mxPoint x="290" y="385" as="sourcePoint"/><Array as="points"><mxPoint x="980" y="368"/><mxPoint x="980" y="385"/></Array></mxGeometry></mxCell><mxCell id="cD3hOyNp7aLph0WX6oH9-62" value="&lt;font color=&quot;#b3b3b3&quot;&gt;ic&lt;/font&gt;&lt;div&gt;run()&lt;br&gt;&lt;/div&gt;" style="rounded=0;whiteSpace=wrap;html=1;dashed=1;dashPattern=1 1;" parent="WIyWlLk6GJQsqaUBKTNV-1" vertex="1"><mxGeometry x="353" y="360" width="90" height="30" as="geometry"/></mxCell><mxCell id="cD3hOyNp7aLph0WX6oH9-65" value="&lt;div&gt;&lt;font color=&quot;#b3b3b3&quot;&gt;rx_thread&lt;/font&gt;&lt;/div&gt;&lt;div&gt;RxThread()&lt;br&gt;&lt;/div&gt;" style="rounded=0;whiteSpace=wrap;html=1;dashed=1;fillColor=#e51400;strokeColor=#B20000;fontColor=#ffffff;" parent="WIyWlLk6GJQsqaUBKTNV-1" vertex="1"><mxGeometry x="1030" y="370" width="120" height="30" as="geometry"/></mxCell><mxCell id="cD3hOyNp7aLph0WX6oH9-68" value="&lt;div&gt;&lt;font color=&quot;#b3b3b3&quot;&gt;tx_thread&lt;/font&gt;&lt;/div&gt;&lt;div&gt;&lt;font color=&quot;#ffffff&quot;&gt;TxThread()&lt;/font&gt;&lt;br&gt;&lt;/div&gt;" style="rounded=0;whiteSpace=wrap;html=1;dashed=1;fillColor=#E51400;strokeColor=#d6b656;" parent="WIyWlLk6GJQsqaUBKTNV-1" vertex="1"><mxGeometry x="1030" y="450" width="120" height="30" as="geometry"/></mxCell><mxCell id="cD3hOyNp7aLph0WX6oH9-74" value="" style="endArrow=classic;html=1;rounded=0;entryX=0;entryY=0.5;entryDx=0;entryDy=0;" parent="WIyWlLk6GJQsqaUBKTNV-1" edge="1"><mxGeometry width="50" height="50" relative="1" as="geometry"><mxPoint x="980" y="380" as="sourcePoint"/><mxPoint x="1030" y="465" as="targetPoint"/><Array as="points"><mxPoint x="980" y="465"/></Array></mxGeometry></mxCell><mxCell id="cD3hOyNp7aLph0WX6oH9-75" value="" style="html=1;verticalLabelPosition=bottom;labelBackgroundColor=#ffffff;verticalAlign=top;shadow=0;dashed=0;strokeWidth=2;shape=mxgraph.ios7.misc.loading_circle;" parent="WIyWlLk6GJQsqaUBKTNV-1" vertex="1"><mxGeometry x="1090" y="410" width="20" height="20" as="geometry"/></mxCell><mxCell id="cD3hOyNp7aLph0WX6oH9-76" value="" style="html=1;verticalLabelPosition=bottom;labelBackgroundColor=#ffffff;verticalAlign=top;shadow=0;dashed=0;strokeWidth=2;shape=mxgraph.ios7.misc.loading_circle;" parent="WIyWlLk6GJQsqaUBKTNV-1" vertex="1"><mxGeometry x="1090" y="490" width="20" height="20" as="geometry"/></mxCell><mxCell id="cD3hOyNp7aLph0WX6oH9-80" value="&lt;font color=&quot;#999999&quot;&gt;input_handling_strategy&lt;/font&gt;&lt;br&gt;&lt;div&gt;&lt;b&gt;ZmqSimpleInputHandlingStrategy&lt;/b&gt;&lt;/div&gt;" style="rounded=0;whiteSpace=wrap;html=1;" parent="WIyWlLk6GJQsqaUBKTNV-1" vertex="1"><mxGeometry x="175" y="470" width="205" height="30" as="geometry"/></mxCell><mxCell id="cD3hOyNp7aLph0WX6oH9-82" value="" style="endArrow=classic;html=1;rounded=0;exitX=1;exitY=0.5;exitDx=0;exitDy=0;entryX=0.5;entryY=0;entryDx=0;entryDy=0;" parent="WIyWlLk6GJQsqaUBKTNV-1" source="cD3hOyNp7aLph0WX6oH9-62" target="cD3hOyNp7aLph0WX6oH9-87" edge="1"><mxGeometry width="50" height="50" relative="1" as="geometry"><mxPoint x="620" y="420" as="sourcePoint"/><mxPoint x="502" y="439" as="targetPoint"/><Array as="points"><mxPoint x="470" y="375"/></Array></mxGeometry></mxCell><mxCell id="cD3hOyNp7aLph0WX6oH9-83" value="&lt;div&gt;&lt;font color=&quot;#999999&quot;&gt;input_handling_strategy&lt;/font&gt;&lt;/div&gt;&lt;div&gt;run()&lt;br&gt;&lt;/div&gt;" style="rounded=0;whiteSpace=wrap;html=1;dashed=1;dashPattern=1 1;" parent="WIyWlLk6GJQsqaUBKTNV-1" vertex="1"><mxGeometry x="556" y="470" width="134" height="30" as="geometry"/></mxCell><mxCell id="cD3hOyNp7aLph0WX6oH9-86" value="" style="html=1;verticalLabelPosition=bottom;labelBackgroundColor=#ffffff;verticalAlign=top;shadow=0;dashed=0;strokeWidth=2;shape=mxgraph.ios7.misc.loading_circle;" parent="WIyWlLk6GJQsqaUBKTNV-1" vertex="1"><mxGeometry x="470" y="510" width="20" height="20" as="geometry"/></mxCell><mxCell id="cD3hOyNp7aLph0WX6oH9-87" value="&lt;div&gt;&lt;font color=&quot;#999999&quot;&gt;input_thread_&lt;/font&gt;&lt;/div&gt;&lt;div&gt;new std::thread(...)&lt;br&gt;&lt;/div&gt;" style="rounded=0;whiteSpace=wrap;html=1;dashed=1;" parent="WIyWlLk6GJQsqaUBKTNV-1" vertex="1"><mxGeometry x="410" y="470" width="120" height="30" as="geometry"/></mxCell><mxCell id="cD3hOyNp7aLph0WX6oH9-89" value="" style="endArrow=classic;html=1;rounded=0;exitX=1;exitY=0.5;exitDx=0;exitDy=0;entryX=0;entryY=0.5;entryDx=0;entryDy=0;dashed=1;dashPattern=8 8;" parent="WIyWlLk6GJQsqaUBKTNV-1" source="cD3hOyNp7aLph0WX6oH9-80" target="cD3hOyNp7aLph0WX6oH9-87" edge="1"><mxGeometry width="50" height="50" relative="1" as="geometry"><mxPoint x="620" y="470" as="sourcePoint"/><mxPoint x="670" y="420" as="targetPoint"/></mxGeometry></mxCell><mxCell id="cD3hOyNp7aLph0WX6oH9-90" value="" style="endArrow=classic;html=1;rounded=0;exitX=1;exitY=0.5;exitDx=0;exitDy=0;entryX=0;entryY=0.5;entryDx=0;entryDy=0;dashed=1;" parent="WIyWlLk6GJQsqaUBKTNV-1" source="cD3hOyNp7aLph0WX6oH9-87" target="cD3hOyNp7aLph0WX6oH9-83" edge="1"><mxGeometry width="50" height="50" relative="1" as="geometry"><mxPoint x="620" y="470" as="sourcePoint"/><mxPoint x="670" y="420" as="targetPoint"/></mxGeometry></mxCell><mxCell id="cD3hOyNp7aLph0WX6oH9-91" value="&lt;font color=&quot;#999999&quot;&gt;output_handling_strategy&lt;/font&gt;&lt;br&gt;&lt;div&gt;&lt;b&gt;ZmqSimpleOutputHandlingStrategy&lt;/b&gt;&lt;/div&gt;" style="rounded=0;whiteSpace=wrap;html=1;" parent="WIyWlLk6GJQsqaUBKTNV-1" vertex="1"><mxGeometry x="175" y="550" width="215" height="30" as="geometry"/></mxCell><mxCell id="cD3hOyNp7aLph0WX6oH9-92" value="&lt;div&gt;&lt;font color=&quot;#999999&quot;&gt;output_handling_strategy&lt;/font&gt;&lt;/div&gt;&lt;div&gt;run()&lt;br&gt;&lt;/div&gt;" style="rounded=0;whiteSpace=wrap;html=1;dashed=1;dashPattern=1 1;" parent="WIyWlLk6GJQsqaUBKTNV-1" vertex="1"><mxGeometry x="556" y="550" width="144" height="30" as="geometry"/></mxCell><mxCell id="cD3hOyNp7aLph0WX6oH9-93" value="&lt;div&gt;&lt;font color=&quot;#999999&quot;&gt;output_thread_&lt;/font&gt;&lt;/div&gt;&lt;div&gt;new std::thread(...)&lt;br&gt;&lt;/div&gt;" style="rounded=0;whiteSpace=wrap;html=1;dashed=1;" parent="WIyWlLk6GJQsqaUBKTNV-1" vertex="1"><mxGeometry x="410" y="550" width="120" height="30" as="geometry"/></mxCell><mxCell id="cD3hOyNp7aLph0WX6oH9-94" value="" style="endArrow=classic;html=1;rounded=0;exitX=1;exitY=0.5;exitDx=0;exitDy=0;entryX=0;entryY=0.5;entryDx=0;entryDy=0;dashed=1;dashPattern=8 8;" parent="WIyWlLk6GJQsqaUBKTNV-1" source="cD3hOyNp7aLph0WX6oH9-91" target="cD3hOyNp7aLph0WX6oH9-93" edge="1"><mxGeometry width="50" height="50" relative="1" as="geometry"><mxPoint x="620" y="550" as="sourcePoint"/><mxPoint x="670" y="500" as="targetPoint"/></mxGeometry></mxCell><mxCell id="cD3hOyNp7aLph0WX6oH9-95" value="" style="endArrow=classic;html=1;rounded=0;exitX=1;exitY=0.5;exitDx=0;exitDy=0;entryX=0;entryY=0.5;entryDx=0;entryDy=0;dashed=1;" parent="WIyWlLk6GJQsqaUBKTNV-1" source="cD3hOyNp7aLph0WX6oH9-93" target="cD3hOyNp7aLph0WX6oH9-92" edge="1"><mxGeometry width="50" height="50" relative="1" as="geometry"><mxPoint x="620" y="550" as="sourcePoint"/><mxPoint x="670" y="500" as="targetPoint"/></mxGeometry></mxCell><mxCell id="cD3hOyNp7aLph0WX6oH9-96" value="" style="html=1;verticalLabelPosition=bottom;labelBackgroundColor=#ffffff;verticalAlign=top;shadow=0;dashed=0;strokeWidth=2;shape=mxgraph.ios7.misc.loading_circle;" parent="WIyWlLk6GJQsqaUBKTNV-1" vertex="1"><mxGeometry x="470" y="590" width="20" height="20" as="geometry"/></mxCell><mxCell id="cD3hOyNp7aLph0WX6oH9-99" value="stopRequested() == false" style="text;html=1;strokeColor=none;fillColor=none;align=center;verticalAlign=middle;whiteSpace=wrap;rounded=0;" parent="WIyWlLk6GJQsqaUBKTNV-1" vertex="1"><mxGeometry x="730" y="460" width="160" height="10" as="geometry"/></mxCell><mxCell id="bI8YFThV1sW2WJhQC19E-1" style="edgeStyle=orthogonalEdgeStyle;rounded=0;orthogonalLoop=1;jettySize=auto;html=1;" parent="WIyWlLk6GJQsqaUBKTNV-1" source="cD3hOyNp7aLph0WX6oH9-101" target="bI8YFThV1sW2WJhQC19E-0" edge="1"><mxGeometry relative="1" as="geometry"/></mxCell><mxCell id="cD3hOyNp7aLph0WX6oH9-101" value="&lt;font color=&quot;#999999&quot;&gt;output_handling_strategy_&lt;/font&gt;&lt;br&gt;stop()" style="rounded=0;whiteSpace=wrap;html=1;dashed=1;dashPattern=1 1;" parent="WIyWlLk6GJQsqaUBKTNV-1" vertex="1"><mxGeometry x="530" y="620" width="150" height="30" as="geometry"/></mxCell><mxCell id="cD3hOyNp7aLph0WX6oH9-102" value="" style="endArrow=classic;html=1;rounded=0;entryX=0.25;entryY=0;entryDx=0;entryDy=0;exitX=0.25;exitY=1;exitDx=0;exitDy=0;" parent="WIyWlLk6GJQsqaUBKTNV-1" source="cD3hOyNp7aLph0WX6oH9-87" target="cD3hOyNp7aLph0WX6oH9-93" edge="1"><mxGeometry width="50" height="50" relative="1" as="geometry"><mxPoint x="410" y="550" as="sourcePoint"/><mxPoint x="460" y="500" as="targetPoint"/></mxGeometry></mxCell><mxCell id="cD3hOyNp7aLph0WX6oH9-103" value="" style="endArrow=classic;html=1;rounded=0;exitX=0.25;exitY=1;exitDx=0;exitDy=0;entryX=0;entryY=0.5;entryDx=0;entryDy=0;" parent="WIyWlLk6GJQsqaUBKTNV-1" source="cD3hOyNp7aLph0WX6oH9-93" target="cD3hOyNp7aLph0WX6oH9-101" edge="1"><mxGeometry width="50" height="50" relative="1" as="geometry"><mxPoint x="360" y="650" as="sourcePoint"/><mxPoint x="440" y="630" as="targetPoint"/><Array as="points"><mxPoint x="440" y="635"/></Array></mxGeometry></mxCell><mxCell id="cD3hOyNp7aLph0WX6oH9-110" value="&lt;font color=&quot;#999999&quot;&gt;ic&lt;/font&gt;&lt;br&gt;stop()" style="rounded=0;whiteSpace=wrap;html=1;dashed=1;dashPattern=1 1;" parent="WIyWlLk6GJQsqaUBKTNV-1" vertex="1"><mxGeometry x="353" y="410" width="87" height="30" as="geometry"/></mxCell><mxCell id="cD3hOyNp7aLph0WX6oH9-113" value="" style="endArrow=classic;html=1;rounded=0;entryX=0;entryY=0.25;entryDx=0;entryDy=0;exitX=0.862;exitY=1.067;exitDx=0;exitDy=0;exitPerimeter=0;dashed=1;" parent="WIyWlLk6GJQsqaUBKTNV-1" source="cD3hOyNp7aLph0WX6oH9-60" target="cD3hOyNp7aLph0WX6oH9-110" edge="1"><mxGeometry width="50" height="50" relative="1" as="geometry"><mxPoint x="290" y="460" as="sourcePoint"/><mxPoint x="340" y="410" as="targetPoint"/><Array as="points"><mxPoint x="300" y="418"/></Array></mxGeometry></mxCell><mxCell id="cD3hOyNp7aLph0WX6oH9-114" value="" style="endArrow=classic;html=1;rounded=0;entryX=0;entryY=0.5;entryDx=0;entryDy=0;dashed=1;" parent="WIyWlLk6GJQsqaUBKTNV-1" target="cD3hOyNp7aLph0WX6oH9-62" edge="1"><mxGeometry width="50" height="50" relative="1" as="geometry"><mxPoint x="320" y="375" as="sourcePoint"/><mxPoint x="350" y="375" as="targetPoint"/></mxGeometry></mxCell><mxCell id="cD3hOyNp7aLph0WX6oH9-118" style="edgeStyle=orthogonalEdgeStyle;rounded=0;orthogonalLoop=1;jettySize=auto;html=1;entryX=0;entryY=0.5;entryDx=0;entryDy=0;" parent="WIyWlLk6GJQsqaUBKTNV-1" source="cD3hOyNp7aLph0WX6oH9-116" target="cD3hOyNp7aLph0WX6oH9-117" edge="1"><mxGeometry relative="1" as="geometry"/></mxCell><mxCell id="cD3hOyNp7aLph0WX6oH9-116" value="&lt;div&gt;&lt;font color=&quot;#999999&quot;&gt;output_thread_&lt;/font&gt;&lt;/div&gt;&lt;div&gt;join()&lt;/div&gt;" style="rounded=0;whiteSpace=wrap;html=1;dashed=1;dashPattern=1 1;" parent="WIyWlLk6GJQsqaUBKTNV-1" vertex="1"><mxGeometry x="414" y="689" width="86" height="30" as="geometry"/></mxCell><mxCell id="cD3hOyNp7aLph0WX6oH9-117" value="&lt;div&gt;&lt;font color=&quot;#999999&quot;&gt;input_thread_&lt;/font&gt;&lt;/div&gt;&lt;div&gt;join()&lt;/div&gt;" style="rounded=0;whiteSpace=wrap;html=1;dashed=1;dashPattern=1 1;" parent="WIyWlLk6GJQsqaUBKTNV-1" vertex="1"><mxGeometry x="524" y="689" width="86" height="30" as="geometry"/></mxCell><mxCell id="cD3hOyNp7aLph0WX6oH9-119" value="" style="endArrow=classic;html=1;rounded=0;entryX=0;entryY=0.5;entryDx=0;entryDy=0;exitX=0.5;exitY=1;exitDx=0;exitDy=0;" parent="WIyWlLk6GJQsqaUBKTNV-1" source="cD3hOyNp7aLph0WX6oH9-110" target="cD3hOyNp7aLph0WX6oH9-116" edge="1"><mxGeometry width="50" height="50" relative="1" as="geometry"><mxPoint x="397" y="440" as="sourcePoint"/><mxPoint x="370" y="420" as="targetPoint"/><Array as="points"><mxPoint x="397" y="450"/><mxPoint x="120" y="450"/><mxPoint x="120" y="704"/></Array></mxGeometry></mxCell><mxCell id="cD3hOyNp7aLph0WX6oH9-120" value="" style="endArrow=classic;html=1;rounded=0;dashed=1;exitX=0.75;exitY=1;exitDx=0;exitDy=0;entryX=1;entryY=0.75;entryDx=0;entryDy=0;" parent="WIyWlLk6GJQsqaUBKTNV-1" source="cD3hOyNp7aLph0WX6oH9-15" target="cD3hOyNp7aLph0WX6oH9-62" edge="1"><mxGeometry width="50" height="50" relative="1" as="geometry"><mxPoint x="666" y="235" as="sourcePoint"/><mxPoint x="320" y="393" as="targetPoint"/><Array as="points"><mxPoint x="650" y="383"/><mxPoint x="520" y="383"/></Array></mxGeometry></mxCell><mxCell id="cD3hOyNp7aLph0WX6oH9-121" value="&lt;b&gt;LightWeightZmqRoutingControl&lt;/b&gt;" style="rounded=0;whiteSpace=wrap;html=1;fillColor=#f8cecc;strokeColor=#b85450;" parent="WIyWlLk6GJQsqaUBKTNV-1" vertex="1"><mxGeometry x="500" y="20" width="210" height="20" as="geometry"/></mxCell><mxCell id="cD3hOyNp7aLph0WX6oH9-122" value="" style="endArrow=classic;html=1;rounded=0;dashed=1;" parent="WIyWlLk6GJQsqaUBKTNV-1" edge="1"><mxGeometry width="50" height="50" relative="1" as="geometry"><mxPoint x="600" y="120" as="sourcePoint"/><mxPoint x="600" y="40" as="targetPoint"/></mxGeometry></mxCell><mxCell id="cD3hOyNp7aLph0WX6oH9-125" style="edgeStyle=orthogonalEdgeStyle;rounded=0;orthogonalLoop=1;jettySize=auto;html=1;entryX=0;entryY=0.5;entryDx=0;entryDy=0;" parent="WIyWlLk6GJQsqaUBKTNV-1" source="cD3hOyNp7aLph0WX6oH9-124" target="cD3hOyNp7aLph0WX6oH9-2" edge="1"><mxGeometry relative="1" as="geometry"/></mxCell><mxCell id="cD3hOyNp7aLph0WX6oH9-126" style="edgeStyle=orthogonalEdgeStyle;rounded=0;orthogonalLoop=1;jettySize=auto;html=1;entryX=0;entryY=0.5;entryDx=0;entryDy=0;strokeColor=#000000;" parent="WIyWlLk6GJQsqaUBKTNV-1" source="cD3hOyNp7aLph0WX6oH9-124" target="cD3hOyNp7aLph0WX6oH9-4" edge="1"><mxGeometry relative="1" as="geometry"/></mxCell><mxCell id="cD3hOyNp7aLph0WX6oH9-124" value="&lt;b&gt;&lt;i&gt;&lt;u&gt;main()&lt;/u&gt;&lt;/i&gt;&lt;/b&gt;" style="rounded=0;whiteSpace=wrap;html=1;" parent="WIyWlLk6GJQsqaUBKTNV-1" vertex="1"><mxGeometry x="-50" y="170" width="60" height="20" as="geometry"/></mxCell><mxCell id="cD3hOyNp7aLph0WX6oH9-127" value="&lt;font color=&quot;#999999&quot;&gt;cc_thread&lt;/font&gt;&lt;br&gt;stop()" style="rounded=0;whiteSpace=wrap;html=1;dashed=1;dashPattern=1 1;" parent="WIyWlLk6GJQsqaUBKTNV-1" vertex="1"><mxGeometry x="800" y="510" width="110" height="30" as="geometry"/></mxCell><mxCell id="cD3hOyNp7aLph0WX6oH9-128" value="" style="endArrow=classic;html=1;rounded=0;exitX=1;exitY=0.75;exitDx=0;exitDy=0;" parent="WIyWlLk6GJQsqaUBKTNV-1" edge="1"><mxGeometry width="50" height="50" relative="1" as="geometry"><mxPoint x="690" y="490" as="sourcePoint"/><mxPoint x="865" y="510" as="targetPoint"/><Array as="points"><mxPoint x="865" y="490.5"/></Array></mxGeometry></mxCell><mxCell id="cD3hOyNp7aLph0WX6oH9-129" value="" style="endArrow=classic;html=1;rounded=0;exitX=1;exitY=0.75;exitDx=0;exitDy=0;entryX=0.591;entryY=1.033;entryDx=0;entryDy=0;entryPerimeter=0;" parent="WIyWlLk6GJQsqaUBKTNV-1" source="cD3hOyNp7aLph0WX6oH9-92" target="cD3hOyNp7aLph0WX6oH9-127" edge="1"><mxGeometry width="50" height="50" relative="1" as="geometry"><mxPoint x="560" y="520" as="sourcePoint"/><mxPoint x="610" y="470" as="targetPoint"/><Array as="points"><mxPoint x="865" y="573"/></Array></mxGeometry></mxCell><mxCell id="cD3hOyNp7aLph0WX6oH9-132" value="&lt;b&gt;UnexITSG5InterfaceConnection &lt;font color=&quot;#b3b3b3&quot;&gt;: V2XInterfaceConnection&lt;/font&gt;&lt;/b&gt;" style="rounded=0;whiteSpace=wrap;html=1;fillColor=#f5f5f5;strokeColor=#666666;fontColor=#333333;" parent="WIyWlLk6GJQsqaUBKTNV-1" vertex="1"><mxGeometry x="-70" y="840" width="340" height="20" as="geometry"/></mxCell><mxCell id="cD3hOyNp7aLph0WX6oH9-133" value="" style="rounded=0;whiteSpace=wrap;html=1;fillColor=#f5f5f5;fontColor=#333333;strokeColor=#666666;" parent="WIyWlLk6GJQsqaUBKTNV-1" vertex="1"><mxGeometry x="-75" y="860" width="855" height="630" as="geometry"/></mxCell><mxCell id="cD3hOyNp7aLph0WX6oH9-134" value="Configure()" style="rounded=0;whiteSpace=wrap;html=1;fillColor=#d5e8d4;strokeColor=#82b366;" parent="WIyWlLk6GJQsqaUBKTNV-1" vertex="1"><mxGeometry x="175" y="750" width="95" height="30" as="geometry"/></mxCell><mxCell id="cD3hOyNp7aLph0WX6oH9-135" value="connections_.push_back(new UnexITSG5InterfaceConnection(...)" style="rounded=0;whiteSpace=wrap;html=1;" parent="WIyWlLk6GJQsqaUBKTNV-1" vertex="1"><mxGeometry x="300" y="750" width="370" height="30" as="geometry"/></mxCell><mxCell id="cD3hOyNp7aLph0WX6oH9-139" value="" style="endArrow=classic;html=1;rounded=0;exitX=1;exitY=0.5;exitDx=0;exitDy=0;entryX=0;entryY=0.5;entryDx=0;entryDy=0;" parent="WIyWlLk6GJQsqaUBKTNV-1" source="cD3hOyNp7aLph0WX6oH9-134" target="cD3hOyNp7aLph0WX6oH9-135" edge="1"><mxGeometry width="50" height="50" relative="1" as="geometry"><mxPoint x="270" y="790" as="sourcePoint"/><mxPoint x="320" y="740" as="targetPoint"/></mxGeometry></mxCell><mxCell id="cD3hOyNp7aLph0WX6oH9-140" value="" style="endArrow=classic;html=1;rounded=0;exitX=0.5;exitY=1;exitDx=0;exitDy=0;dashed=1;strokeColor=#FF0000;entryX=0;entryY=0.5;entryDx=0;entryDy=0;" parent="WIyWlLk6GJQsqaUBKTNV-1" target="cD3hOyNp7aLph0WX6oH9-134" edge="1"><mxGeometry width="50" height="50" relative="1" as="geometry"><mxPoint x="380" y="230" as="sourcePoint"/><mxPoint x="170" y="765" as="targetPoint"/><Array as="points"><mxPoint x="380" y="350"/><mxPoint x="-52" y="350"/><mxPoint x="-52" y="550"/><mxPoint x="-52" y="765"/></Array></mxGeometry></mxCell><mxCell id="izcfxyKsgymHGHo4lzse-1" style="edgeStyle=orthogonalEdgeStyle;rounded=0;orthogonalLoop=1;jettySize=auto;html=1;entryX=0;entryY=0.5;entryDx=0;entryDy=0;" parent="WIyWlLk6GJQsqaUBKTNV-1" source="izcfxyKsgymHGHo4lzse-0" target="cD3hOyNp7aLph0WX6oH9-80" edge="1"><mxGeometry relative="1" as="geometry"/></mxCell><mxCell id="izcfxyKsgymHGHo4lzse-3" style="edgeStyle=orthogonalEdgeStyle;rounded=0;orthogonalLoop=1;jettySize=auto;html=1;entryX=0;entryY=0.75;entryDx=0;entryDy=0;" parent="WIyWlLk6GJQsqaUBKTNV-1" source="izcfxyKsgymHGHo4lzse-0" target="cD3hOyNp7aLph0WX6oH9-91" edge="1"><mxGeometry relative="1" as="geometry"/></mxCell><mxCell id="izcfxyKsgymHGHo4lzse-0" value="CommunicationControl" style="rounded=0;whiteSpace=wrap;html=1;fillColor=#d5e8d4;strokeColor=#82b366;strokeWidth=2;" parent="WIyWlLk6GJQsqaUBKTNV-1" vertex="1"><mxGeometry x="-40" y="525" width="130" height="25" as="geometry"/></mxCell><mxCell id="izcfxyKsgymHGHo4lzse-19" style="edgeStyle=orthogonalEdgeStyle;rounded=0;orthogonalLoop=1;jettySize=auto;html=1;entryX=0;entryY=0.5;entryDx=0;entryDy=0;" parent="WIyWlLk6GJQsqaUBKTNV-1" source="izcfxyKsgymHGHo4lzse-6" target="izcfxyKsgymHGHo4lzse-18" edge="1"><mxGeometry relative="1" as="geometry"><Array as="points"><mxPoint x="160" y="995"/><mxPoint x="160" y="1100"/></Array></mxGeometry></mxCell><mxCell id="izcfxyKsgymHGHo4lzse-6" value="UnexITSG5InterfaceConnection" style="rounded=0;whiteSpace=wrap;html=1;fillColor=#f5f5f5;fontColor=#333333;strokeColor=#666666;strokeWidth=2;" parent="WIyWlLk6GJQsqaUBKTNV-1" vertex="1"><mxGeometry x="-40" y="982.5" width="180" height="25" as="geometry"/></mxCell><mxCell id="izcfxyKsgymHGHo4lzse-7" value="Connect()" style="rounded=0;whiteSpace=wrap;html=1;fillColor=#f5f5f5;fontColor=#333333;strokeColor=#666666;" parent="WIyWlLk6GJQsqaUBKTNV-1" vertex="1"><mxGeometry x="175" y="900" width="77.5" height="30" as="geometry"/></mxCell><mxCell id="izcfxyKsgymHGHo4lzse-9" value="" style="endArrow=classic;html=1;rounded=0;exitX=0.5;exitY=1;exitDx=0;exitDy=0;entryX=0.5;entryY=0;entryDx=0;entryDy=0;dashed=1;strokeColor=#FF00FF;" parent="WIyWlLk6GJQsqaUBKTNV-1" source="cD3hOyNp7aLph0WX6oH9-14" target="izcfxyKsgymHGHo4lzse-7" edge="1"><mxGeometry width="50" height="50" relative="1" as="geometry"><mxPoint x="440" y="310" as="sourcePoint"/><mxPoint x="488" y="300" as="targetPoint"/><Array as="points"><mxPoint x="488" y="300"/><mxPoint x="-100" y="300"/><mxPoint x="-100" y="870"/><mxPoint x="214" y="870"/></Array></mxGeometry></mxCell><mxCell id="izcfxyKsgymHGHo4lzse-10" value="Close()" style="rounded=0;whiteSpace=wrap;html=1;fillColor=#f5f5f5;fontColor=#333333;strokeColor=#666666;" parent="WIyWlLk6GJQsqaUBKTNV-1" vertex="1"><mxGeometry x="181.25" y="960" width="65" height="32" as="geometry"/></mxCell><mxCell id="izcfxyKsgymHGHo4lzse-27" style="edgeStyle=orthogonalEdgeStyle;rounded=0;orthogonalLoop=1;jettySize=auto;html=1;" parent="WIyWlLk6GJQsqaUBKTNV-1" source="izcfxyKsgymHGHo4lzse-12" target="izcfxyKsgymHGHo4lzse-26" edge="1"><mxGeometry relative="1" as="geometry"/></mxCell><mxCell id="izcfxyKsgymHGHo4lzse-12" value="&lt;font color=&quot;#cccccc&quot;&gt;overridden&lt;/font&gt;&lt;br&gt;DoReceive()" style="rounded=0;whiteSpace=wrap;html=1;fillColor=#f5f5f5;fontColor=#333333;strokeColor=#666666;" parent="WIyWlLk6GJQsqaUBKTNV-1" vertex="1"><mxGeometry x="181.25" y="1015" width="89" height="40" as="geometry"/></mxCell><mxCell id="izcfxyKsgymHGHo4lzse-17" value="" style="endArrow=classic;html=1;rounded=0;exitX=0.5;exitY=1;exitDx=0;exitDy=0;entryX=1;entryY=0.25;entryDx=0;entryDy=0;dashed=1;strokeColor=#3333FF;" parent="WIyWlLk6GJQsqaUBKTNV-1" source="cD3hOyNp7aLph0WX6oH9-43" target="izcfxyKsgymHGHo4lzse-10" edge="1"><mxGeometry width="50" height="50" relative="1" as="geometry"><mxPoint x="920" y="320" as="sourcePoint"/><mxPoint x="970" y="270" as="targetPoint"/><Array as="points"><mxPoint x="1008" y="300"/><mxPoint x="950" y="300"/><mxPoint x="950" y="830"/><mxPoint x="290" y="830"/><mxPoint x="290" y="968"/></Array></mxGeometry></mxCell><mxCell id="izcfxyKsgymHGHo4lzse-29" style="edgeStyle=orthogonalEdgeStyle;rounded=0;orthogonalLoop=1;jettySize=auto;html=1;entryX=0;entryY=0.5;entryDx=0;entryDy=0;" parent="WIyWlLk6GJQsqaUBKTNV-1" source="izcfxyKsgymHGHo4lzse-18" target="izcfxyKsgymHGHo4lzse-28" edge="1"><mxGeometry relative="1" as="geometry"/></mxCell><mxCell id="izcfxyKsgymHGHo4lzse-18" value="&lt;font color=&quot;#cccccc&quot;&gt;overridden&lt;/font&gt;&lt;br&gt;DoSend()" style="rounded=0;whiteSpace=wrap;html=1;fillColor=#f5f5f5;fontColor=#333333;strokeColor=#666666;" parent="WIyWlLk6GJQsqaUBKTNV-1" vertex="1"><mxGeometry x="181.25" y="1080" width="89" height="40" as="geometry"/></mxCell><mxCell id="JzbPV3-W8_6wh9YUh_4R-12" style="edgeStyle=orthogonalEdgeStyle;rounded=0;orthogonalLoop=1;jettySize=auto;html=1;entryX=0;entryY=0.5;entryDx=0;entryDy=0;" parent="WIyWlLk6GJQsqaUBKTNV-1" source="izcfxyKsgymHGHo4lzse-20" target="JzbPV3-W8_6wh9YUh_4R-10" edge="1"><mxGeometry relative="1" as="geometry"/></mxCell><mxCell id="izcfxyKsgymHGHo4lzse-20" value="eu_caster_init()" style="rounded=0;whiteSpace=wrap;html=1;fillColor=#a20025;fontColor=#ffffff;strokeColor=#6F0000;" parent="WIyWlLk6GJQsqaUBKTNV-1" vertex="1"><mxGeometry x="480" y="1200" width="100" height="30" as="geometry"/></mxCell><mxCell id="izcfxyKsgymHGHo4lzse-26" value="eu_caster_rx_timeout()" style="rounded=0;whiteSpace=wrap;html=1;fillColor=#a20025;fontColor=#ffffff;strokeColor=#6F0000;" parent="WIyWlLk6GJQsqaUBKTNV-1" vertex="1"><mxGeometry x="332" y="1020" width="138" height="30" as="geometry"/></mxCell><mxCell id="izcfxyKsgymHGHo4lzse-28" value="eu_caster_tx()" style="rounded=0;whiteSpace=wrap;html=1;fillColor=#a20025;fontColor=#ffffff;strokeColor=#6F0000;" parent="WIyWlLk6GJQsqaUBKTNV-1" vertex="1"><mxGeometry x="332" y="1085" width="103" height="30" as="geometry"/></mxCell><mxCell id="fAo8v_-M1GGBSFPqJYLn-1" value="© Patrizia Neubauer" style="text;html=1;strokeColor=none;fillColor=none;align=center;verticalAlign=middle;whiteSpace=wrap;rounded=0;" parent="WIyWlLk6GJQsqaUBKTNV-1" vertex="1"><mxGeometry x="-75" y="1520" width="120" height="30" as="geometry"/></mxCell><mxCell id="lbeEDpEWwXcpVsuiIqfI-0" value="" style="endArrow=none;html=1;rounded=0;entryX=0.25;entryY=1;entryDx=0;entryDy=0;fillColor=#d80073;strokeColor=#FF00FF;dashed=1;dashPattern=8 8;" parent="WIyWlLk6GJQsqaUBKTNV-1" target="cD3hOyNp7aLph0WX6oH9-15" edge="1"><mxGeometry width="50" height="50" relative="1" as="geometry"><mxPoint x="490" y="300" as="sourcePoint"/><mxPoint x="540" y="420" as="targetPoint"/><Array as="points"><mxPoint x="590" y="300"/></Array></mxGeometry></mxCell><mxCell id="lbeEDpEWwXcpVsuiIqfI-1" value="" style="endArrow=classic;html=1;rounded=0;" parent="WIyWlLk6GJQsqaUBKTNV-1" edge="1"><mxGeometry width="50" height="50" relative="1" as="geometry"><mxPoint x="590" y="500" as="sourcePoint"/><mxPoint x="590" y="550" as="targetPoint"/></mxGeometry></mxCell><mxCell id="lbeEDpEWwXcpVsuiIqfI-2" value="" style="endArrow=classic;html=1;rounded=0;exitX=0.75;exitY=0;exitDx=0;exitDy=0;entryX=1;entryY=0.25;entryDx=0;entryDy=0;" parent="WIyWlLk6GJQsqaUBKTNV-1" source="cD3hOyNp7aLph0WX6oH9-127" target="cD3hOyNp7aLph0WX6oH9-83" edge="1"><mxGeometry width="50" height="50" relative="1" as="geometry"><mxPoint x="490" y="470" as="sourcePoint"/><mxPoint x="540" y="420" as="targetPoint"/><Array as="points"><mxPoint x="883" y="478"/></Array></mxGeometry></mxCell><mxCell id="bI8YFThV1sW2WJhQC19E-2" style="edgeStyle=orthogonalEdgeStyle;rounded=0;orthogonalLoop=1;jettySize=auto;html=1;entryX=0;entryY=0.75;entryDx=0;entryDy=0;" parent="WIyWlLk6GJQsqaUBKTNV-1" source="bI8YFThV1sW2WJhQC19E-0" target="cD3hOyNp7aLph0WX6oH9-110" edge="1"><mxGeometry relative="1" as="geometry"><Array as="points"><mxPoint x="785" y="660"/><mxPoint x="110" y="660"/><mxPoint x="110" y="433"/></Array></mxGeometry></mxCell><mxCell id="bI8YFThV1sW2WJhQC19E-0" value="&lt;font color=&quot;#999999&quot;&gt;input_handling_strategy_&lt;/font&gt;&lt;br&gt;stop()" style="rounded=0;whiteSpace=wrap;html=1;dashed=1;dashPattern=1 1;" parent="WIyWlLk6GJQsqaUBKTNV-1" vertex="1"><mxGeometry x="710" y="620" width="150" height="30" as="geometry"/></mxCell><mxCell id="bI8YFThV1sW2WJhQC19E-4" value="" style="endArrow=classic;html=1;rounded=0;exitX=0.75;exitY=1;exitDx=0;exitDy=0;" parent="WIyWlLk6GJQsqaUBKTNV-1" source="cD3hOyNp7aLph0WX6oH9-127" edge="1"><mxGeometry width="50" height="50" relative="1" as="geometry"><mxPoint x="480" y="590" as="sourcePoint"/><mxPoint x="600" y="620" as="targetPoint"/><Array as="points"><mxPoint x="883" y="600"/><mxPoint x="600" y="600"/></Array></mxGeometry></mxCell><mxCell id="DyQ_ZiMRK9K9Bd2Ysd7o-0" value="" style="endArrow=classic;html=1;rounded=0;dashed=1;dashPattern=12 12;" parent="WIyWlLk6GJQsqaUBKTNV-1" edge="1"><mxGeometry width="50" height="50" relative="1" as="geometry"><mxPoint x="670" y="230" as="sourcePoint"/><mxPoint x="900" y="510" as="targetPoint"/><Array as="points"><mxPoint x="670" y="310"/><mxPoint x="900" y="310"/></Array></mxGeometry></mxCell><mxCell id="JzbPV3-W8_6wh9YUh_4R-2" value="" style="endArrow=classic;html=1;rounded=0;entryX=0;entryY=0.5;entryDx=0;entryDy=0;" parent="WIyWlLk6GJQsqaUBKTNV-1" target="izcfxyKsgymHGHo4lzse-10" edge="1"><mxGeometry width="50" height="50" relative="1" as="geometry"><mxPoint x="160" y="1000" as="sourcePoint"/><mxPoint x="740" y="890" as="targetPoint"/><Array as="points"><mxPoint x="160" y="976"/></Array></mxGeometry></mxCell><mxCell id="JzbPV3-W8_6wh9YUh_4R-3" value="" style="endArrow=classic;html=1;rounded=0;entryX=0;entryY=0.5;entryDx=0;entryDy=0;" parent="WIyWlLk6GJQsqaUBKTNV-1" target="izcfxyKsgymHGHo4lzse-12" edge="1"><mxGeometry width="50" height="50" relative="1" as="geometry"><mxPoint x="160" y="1035" as="sourcePoint"/><mxPoint x="310" y="1010" as="targetPoint"/></mxGeometry></mxCell><mxCell id="JzbPV3-W8_6wh9YUh_4R-4" value="" style="endArrow=classic;html=1;rounded=0;entryX=0;entryY=0.5;entryDx=0;entryDy=0;" parent="WIyWlLk6GJQsqaUBKTNV-1" edge="1"><mxGeometry width="50" height="50" relative="1" as="geometry"><mxPoint x="160" y="1100" as="sourcePoint"/><mxPoint x="181.25" y="1160" as="targetPoint"/><Array as="points"><mxPoint x="160" y="1160"/></Array></mxGeometry></mxCell><mxCell id="JzbPV3-W8_6wh9YUh_4R-5" value="" style="endArrow=classic;html=1;rounded=0;entryX=0;entryY=0.5;entryDx=0;entryDy=0;" parent="WIyWlLk6GJQsqaUBKTNV-1" edge="1"><mxGeometry width="50" height="50" relative="1" as="geometry"><mxPoint x="160" y="1160" as="sourcePoint"/><mxPoint x="181.25" y="1320" as="targetPoint"/><Array as="points"><mxPoint x="160" y="1220"/><mxPoint x="160" y="1320"/></Array></mxGeometry></mxCell><mxCell id="JzbPV3-W8_6wh9YUh_4R-11" value="" style="edgeStyle=orthogonalEdgeStyle;rounded=0;orthogonalLoop=1;jettySize=auto;html=1;" parent="WIyWlLk6GJQsqaUBKTNV-1" source="JzbPV3-W8_6wh9YUh_4R-8" target="izcfxyKsgymHGHo4lzse-20" edge="1"><mxGeometry relative="1" as="geometry"/></mxCell><mxCell id="JzbPV3-W8_6wh9YUh_4R-8" value="CreateRxCaster()" style="rounded=0;whiteSpace=wrap;html=1;fillColor=#f5f5f5;fontColor=#333333;strokeColor=#666666;" parent="WIyWlLk6GJQsqaUBKTNV-1" vertex="1"><mxGeometry x="332" y="1200" width="108" height="30" as="geometry"/></mxCell><mxCell id="JzbPV3-W8_6wh9YUh_4R-10" value="eu_caster_create()" style="rounded=0;whiteSpace=wrap;html=1;fillColor=#a20025;fontColor=#ffffff;strokeColor=#6F0000;" parent="WIyWlLk6GJQsqaUBKTNV-1" vertex="1"><mxGeometry x="620" y="1200" width="110" height="30" as="geometry"/></mxCell><mxCell id="JzbPV3-W8_6wh9YUh_4R-16" style="edgeStyle=orthogonalEdgeStyle;rounded=0;orthogonalLoop=1;jettySize=auto;html=1;entryX=0;entryY=0.5;entryDx=0;entryDy=0;" parent="WIyWlLk6GJQsqaUBKTNV-1" source="JzbPV3-W8_6wh9YUh_4R-13" target="JzbPV3-W8_6wh9YUh_4R-15" edge="1"><mxGeometry relative="1" as="geometry"/></mxCell><mxCell id="JzbPV3-W8_6wh9YUh_4R-13" value="ReleaseRxCaster()" style="rounded=0;whiteSpace=wrap;html=1;fillColor=#f5f5f5;fontColor=#333333;strokeColor=#666666;" parent="WIyWlLk6GJQsqaUBKTNV-1" vertex="1"><mxGeometry x="332" y="1250" width="120" height="30" as="geometry"/></mxCell><mxCell id="JzbPV3-W8_6wh9YUh_4R-15" value="eu_caster_release()" style="rounded=0;whiteSpace=wrap;html=1;fillColor=#a20025;fontColor=#ffffff;strokeColor=#6F0000;" parent="WIyWlLk6GJQsqaUBKTNV-1" vertex="1"><mxGeometry x="480" y="1250" width="120" height="30" as="geometry"/></mxCell><mxCell id="JzbPV3-W8_6wh9YUh_4R-17" value="" style="endArrow=classic;html=1;rounded=0;entryX=0;entryY=0.5;entryDx=0;entryDy=0;" parent="WIyWlLk6GJQsqaUBKTNV-1" target="JzbPV3-W8_6wh9YUh_4R-8" edge="1"><mxGeometry width="50" height="50" relative="1" as="geometry"><mxPoint x="160" y="1215" as="sourcePoint"/><mxPoint x="690" y="1280" as="targetPoint"/></mxGeometry></mxCell><mxCell id="JzbPV3-W8_6wh9YUh_4R-18" value="" style="endArrow=classic;html=1;rounded=0;entryX=0;entryY=0.5;entryDx=0;entryDy=0;" parent="WIyWlLk6GJQsqaUBKTNV-1" target="JzbPV3-W8_6wh9YUh_4R-13" edge="1"><mxGeometry width="50" height="50" relative="1" as="geometry"><mxPoint x="160" y="1265" as="sourcePoint"/><mxPoint x="690" y="1280" as="targetPoint"/></mxGeometry></mxCell><mxCell id="JzbPV3-W8_6wh9YUh_4R-19" value="" style="endArrow=classic;html=1;rounded=0;exitX=1;exitY=0.5;exitDx=0;exitDy=0;entryX=0.5;entryY=0;entryDx=0;entryDy=0;strokeColor=#666666;" parent="WIyWlLk6GJQsqaUBKTNV-1" target="JzbPV3-W8_6wh9YUh_4R-8" edge="1"><mxGeometry width="50" height="50" relative="1" as="geometry"><mxPoint x="270.25" y="1160" as="sourcePoint"/><mxPoint x="690" y="1280" as="targetPoint"/><Array as="points"><mxPoint x="386" y="1160"/></Array></mxGeometry></mxCell><mxCell id="JzbPV3-W8_6wh9YUh_4R-20" value="" style="endArrow=classic;html=1;rounded=0;exitX=0.5;exitY=1;exitDx=0;exitDy=0;entryX=0.45;entryY=0;entryDx=0;entryDy=0;entryPerimeter=0;strokeColor=#666666;" parent="WIyWlLk6GJQsqaUBKTNV-1" source="JzbPV3-W8_6wh9YUh_4R-8" target="JzbPV3-W8_6wh9YUh_4R-13" edge="1"><mxGeometry width="50" height="50" relative="1" as="geometry"><mxPoint x="640" y="1330" as="sourcePoint"/><mxPoint x="690" y="1280" as="targetPoint"/></mxGeometry></mxCell><mxCell id="JzbPV3-W8_6wh9YUh_4R-27" style="edgeStyle=orthogonalEdgeStyle;rounded=0;orthogonalLoop=1;jettySize=auto;html=1;" parent="WIyWlLk6GJQsqaUBKTNV-1" source="JzbPV3-W8_6wh9YUh_4R-21" target="JzbPV3-W8_6wh9YUh_4R-25" edge="1"><mxGeometry relative="1" as="geometry"/></mxCell><mxCell id="JzbPV3-W8_6wh9YUh_4R-21" value="CreateTxCaster()" style="rounded=0;whiteSpace=wrap;html=1;fillColor=#f5f5f5;fontColor=#333333;strokeColor=#666666;" parent="WIyWlLk6GJQsqaUBKTNV-1" vertex="1"><mxGeometry x="332" y="1370" width="108" height="30" as="geometry"/></mxCell><mxCell id="JzbPV3-W8_6wh9YUh_4R-30" style="edgeStyle=orthogonalEdgeStyle;rounded=0;orthogonalLoop=1;jettySize=auto;html=1;" parent="WIyWlLk6GJQsqaUBKTNV-1" source="JzbPV3-W8_6wh9YUh_4R-22" target="JzbPV3-W8_6wh9YUh_4R-29" edge="1"><mxGeometry relative="1" as="geometry"/></mxCell><mxCell id="JzbPV3-W8_6wh9YUh_4R-22" value="ReleaseTxCaster()" style="rounded=0;whiteSpace=wrap;html=1;fillColor=#f5f5f5;fontColor=#333333;strokeColor=#666666;" parent="WIyWlLk6GJQsqaUBKTNV-1" vertex="1"><mxGeometry x="332" y="1420" width="120" height="30" as="geometry"/></mxCell><mxCell id="JzbPV3-W8_6wh9YUh_4R-23" value="" style="endArrow=classic;html=1;rounded=0;exitX=0.5;exitY=1;exitDx=0;exitDy=0;strokeColor=#666666;" parent="WIyWlLk6GJQsqaUBKTNV-1" source="JzbPV3-W8_6wh9YUh_4R-21" edge="1"><mxGeometry width="50" height="50" relative="1" as="geometry"><mxPoint x="396" y="1240" as="sourcePoint"/><mxPoint x="386" y="1420" as="targetPoint"/></mxGeometry></mxCell><mxCell id="JzbPV3-W8_6wh9YUh_4R-24" value="" style="endArrow=classic;html=1;rounded=0;exitX=1;exitY=0.5;exitDx=0;exitDy=0;entryX=0.5;entryY=0;entryDx=0;entryDy=0;strokeColor=#666666;" parent="WIyWlLk6GJQsqaUBKTNV-1" target="JzbPV3-W8_6wh9YUh_4R-21" edge="1"><mxGeometry width="50" height="50" relative="1" as="geometry"><mxPoint x="270.25" y="1320" as="sourcePoint"/><mxPoint x="396" y="1210" as="targetPoint"/><Array as="points"><mxPoint x="386" y="1320"/></Array></mxGeometry></mxCell><mxCell id="JzbPV3-W8_6wh9YUh_4R-28" style="edgeStyle=orthogonalEdgeStyle;rounded=0;orthogonalLoop=1;jettySize=auto;html=1;" parent="WIyWlLk6GJQsqaUBKTNV-1" source="JzbPV3-W8_6wh9YUh_4R-25" target="JzbPV3-W8_6wh9YUh_4R-26" edge="1"><mxGeometry relative="1" as="geometry"/></mxCell><mxCell id="JzbPV3-W8_6wh9YUh_4R-25" value="eu_caster_init()" style="rounded=0;whiteSpace=wrap;html=1;fillColor=#a20025;fontColor=#ffffff;strokeColor=#6F0000;" parent="WIyWlLk6GJQsqaUBKTNV-1" vertex="1"><mxGeometry x="480" y="1370" width="100" height="30" as="geometry"/></mxCell><mxCell id="JzbPV3-W8_6wh9YUh_4R-26" value="eu_caster_create()" style="rounded=0;whiteSpace=wrap;html=1;fillColor=#a20025;fontColor=#ffffff;strokeColor=#6F0000;" parent="WIyWlLk6GJQsqaUBKTNV-1" vertex="1"><mxGeometry x="620" y="1370" width="110" height="30" as="geometry"/></mxCell><mxCell id="JzbPV3-W8_6wh9YUh_4R-29" value="eu_caster_release()" style="rounded=0;whiteSpace=wrap;html=1;fillColor=#a20025;fontColor=#ffffff;strokeColor=#6F0000;" parent="WIyWlLk6GJQsqaUBKTNV-1" vertex="1"><mxGeometry x="480" y="1420" width="120" height="30" as="geometry"/></mxCell><mxCell id="JzbPV3-W8_6wh9YUh_4R-34" value="" style="endArrow=classic;html=1;rounded=0;exitX=1;exitY=0.5;exitDx=0;exitDy=0;entryX=1;entryY=0.25;entryDx=0;entryDy=0;dashed=1;strokeColor=#CC6600;" parent="WIyWlLk6GJQsqaUBKTNV-1" source="cD3hOyNp7aLph0WX6oH9-65" edge="1"><mxGeometry width="50" height="50" relative="1" as="geometry"><mxPoint x="1018" y="240" as="sourcePoint"/><mxPoint x="270.25" y="1150" as="targetPoint"/><Array as="points"><mxPoint x="1240" y="385"/><mxPoint x="1240" y="1150"/></Array></mxGeometry></mxCell><mxCell id="JzbPV3-W8_6wh9YUh_4R-35" value="" style="endArrow=classic;html=1;rounded=0;exitX=1;exitY=0.5;exitDx=0;exitDy=0;entryX=1;entryY=0.25;entryDx=0;entryDy=0;dashed=1;strokeColor=#CC6600;" parent="WIyWlLk6GJQsqaUBKTNV-1" source="cD3hOyNp7aLph0WX6oH9-68" edge="1"><mxGeometry width="50" height="50" relative="1" as="geometry"><mxPoint x="1171" y="465" as="sourcePoint"/><mxPoint x="270.25" y="1310" as="targetPoint"/><Array as="points"><mxPoint x="1220" y="465"/><mxPoint x="1220" y="1310"/></Array></mxGeometry></mxCell><mxCell id="JzbPV3-W8_6wh9YUh_4R-36" value="DoReceive()" style="rounded=0;whiteSpace=wrap;html=1;fillColor=#FFF2CC;fontColor=#333333;strokeColor=#666666;" parent="WIyWlLk6GJQsqaUBKTNV-1" vertex="1"><mxGeometry x="1032.5" y="540" width="77.5" height="30" as="geometry"/></mxCell><mxCell id="JzbPV3-W8_6wh9YUh_4R-37" value="DoSend()" style="rounded=0;whiteSpace=wrap;html=1;fillColor=#FFF2CC;fontColor=#333333;strokeColor=#666666;" parent="WIyWlLk6GJQsqaUBKTNV-1" vertex="1"><mxGeometry x="1032.5" y="600" width="77.5" height="30" as="geometry"/></mxCell><mxCell id="JzbPV3-W8_6wh9YUh_4R-38" value="" style="endArrow=classic;html=1;rounded=0;exitX=1;exitY=0.5;exitDx=0;exitDy=0;entryX=1;entryY=0.25;entryDx=0;entryDy=0;dashed=1;strokeColor=#CC6600;" parent="WIyWlLk6GJQsqaUBKTNV-1" source="JzbPV3-W8_6wh9YUh_4R-36" target="izcfxyKsgymHGHo4lzse-12" edge="1"><mxGeometry width="50" height="50" relative="1" as="geometry"><mxPoint x="1120" y="550" as="sourcePoint"/><mxPoint x="240" y="1315" as="targetPoint"/><Array as="points"><mxPoint x="1200" y="555"/><mxPoint x="1200" y="1010"/><mxPoint x="310" y="1010"/><mxPoint x="310" y="1025"/></Array></mxGeometry></mxCell><mxCell id="JzbPV3-W8_6wh9YUh_4R-39" value="" style="endArrow=classic;html=1;rounded=0;entryX=0;entryY=0.5;entryDx=0;entryDy=0;" parent="WIyWlLk6GJQsqaUBKTNV-1" target="JzbPV3-W8_6wh9YUh_4R-36" edge="1"><mxGeometry width="50" height="50" relative="1" as="geometry"><mxPoint x="980" y="460" as="sourcePoint"/><mxPoint x="690" y="680" as="targetPoint"/><Array as="points"><mxPoint x="980" y="555"/></Array></mxGeometry></mxCell><mxCell id="JzbPV3-W8_6wh9YUh_4R-40" value="" style="endArrow=classic;html=1;rounded=0;entryX=0;entryY=0.5;entryDx=0;entryDy=0;" parent="WIyWlLk6GJQsqaUBKTNV-1" target="JzbPV3-W8_6wh9YUh_4R-37" edge="1"><mxGeometry width="50" height="50" relative="1" as="geometry"><mxPoint x="980" y="550" as="sourcePoint"/><mxPoint x="690" y="680" as="targetPoint"/><Array as="points"><mxPoint x="980" y="615"/></Array></mxGeometry></mxCell><mxCell id="JzbPV3-W8_6wh9YUh_4R-41" value="" style="endArrow=classic;html=1;rounded=0;exitX=1;exitY=0.5;exitDx=0;exitDy=0;dashed=1;strokeColor=#CC6600;" parent="WIyWlLk6GJQsqaUBKTNV-1" edge="1"><mxGeometry width="50" height="50" relative="1" as="geometry"><mxPoint x="1110.25" y="615" as="sourcePoint"/><mxPoint x="270" y="1090" as="targetPoint"/><Array as="points"><mxPoint x="1180" y="615"/><mxPoint x="1180" y="1070"/><mxPoint x="310" y="1070"/><mxPoint x="310" y="1090"/></Array></mxGeometry></mxCell><mxCell id="JzbPV3-W8_6wh9YUh_4R-42" value="&lt;div&gt;&lt;font color=&quot;#b3b3b3&quot;&gt;overridden&lt;/font&gt;&lt;/div&gt;&lt;div&gt;RxThread()&lt;br&gt;&lt;/div&gt;" style="rounded=0;whiteSpace=wrap;html=1;dashed=1;fillColor=#e51400;strokeColor=#B20000;fontColor=#ffffff;" parent="WIyWlLk6GJQsqaUBKTNV-1" vertex="1"><mxGeometry x="181.25" y="1140" width="88.75" height="39" as="geometry"/></mxCell><mxCell id="JzbPV3-W8_6wh9YUh_4R-43" value="&lt;div&gt;&lt;font color=&quot;#b3b3b3&quot;&gt;overridden&lt;/font&gt;&lt;/div&gt;&lt;div&gt;TxThread()&lt;br&gt;&lt;/div&gt;" style="rounded=0;whiteSpace=wrap;html=1;dashed=1;fillColor=#e51400;strokeColor=#B20000;fontColor=#ffffff;" parent="WIyWlLk6GJQsqaUBKTNV-1" vertex="1"><mxGeometry x="181.5" y="1300" width="88.75" height="39" as="geometry"/></mxCell></root></mxGraphModel></diagram></mxfile>